<svg width="437" height="451" viewBox="0 0 437 451" fill="none" xmlns="http://www.w3.org/2000/svg">
<path d="M226.182 0C298.951 0 365.987 34.5003 408.352 91.7608C414.521 100.098 412.763 111.858 404.425 118.027C396.088 124.196 384.328 122.438 378.159 114.1C342.808 66.3198 286.924 37.5589 226.182 37.5589C121.992 37.5589 37.559 121.654 37.559 225.354C37.559 329.053 121.992 413.148 226.182 413.148C280.526 413.148 331.101 390.168 366.674 350.663C367.932 349.267 369.129 348.088 370.35 346.621C370.536 346.398 403.053 365.971 403.053 365.971C403.053 365.971 396.537 373.628 394.585 375.796C351.957 423.135 291.276 450.707 226.182 450.707C101.282 450.707 0 349.83 0 225.354C0 100.877 101.282 0 226.182 0Z" fill="#F83A57"/>
<path d="M229.841 105.635C260.781 105.635 290.253 115.5 314.469 133.446C321.76 138.849 323.29 149.14 317.887 156.431C312.484 163.723 302.192 165.253 294.901 159.85C276.309 146.072 253.687 138.499 229.841 138.499C170.177 138.499 121.931 185.862 121.931 244.133C121.931 302.405 170.177 349.768 229.841 349.768C260.553 349.768 289.141 337.165 309.461 315.434C310.218 314.624 311.608 313.222 312.297 312.366C312.674 311.897 341.314 328.905 340.971 329.32C339.88 330.636 334.731 336.526 333.466 337.88C306.978 366.207 269.721 382.632 229.841 382.632C152.161 382.632 89.0674 320.693 89.0674 244.133C89.0674 167.574 152.161 105.635 229.841 105.635Z" fill="#FFAB1A"/>
<path d="M236.225 173.707C259.892 173.707 281.903 184.088 296.965 201.742C302.013 207.66 301.309 216.55 295.391 221.598C289.473 226.647 280.583 225.942 275.535 220.025C265.77 208.579 251.558 201.876 236.225 201.876C207.703 201.876 184.581 224.998 184.581 253.52C184.581 282.042 207.703 305.163 236.225 305.163C250.314 305.163 263.459 299.505 273.079 289.698C273.189 289.586 273.407 289.361 273.407 289.361C273.407 289.361 298.316 303.75 298.129 303.935C297.851 304.212 297.585 304.587 296.533 305.799C281.476 323.156 259.66 333.332 236.225 333.332C192.145 333.332 156.412 297.599 156.412 253.52C156.412 209.44 192.145 173.707 236.225 173.707Z" fill="#3333FF"/>
<path fill-rule="evenodd" clip-rule="evenodd" d="M303.533 254.771C311.312 254.771 317.617 248.465 317.617 240.686C317.617 232.907 311.312 226.602 303.533 226.602C295.754 226.602 289.448 232.907 289.448 240.686C289.448 248.465 295.754 254.771 303.533 254.771Z" fill="#3333FF"/>
<path fill-rule="evenodd" clip-rule="evenodd" d="M330.853 192.83C339.928 192.83 347.285 185.473 347.285 176.398C347.285 167.323 339.928 159.966 330.853 159.966C321.778 159.966 314.421 167.323 314.421 176.398C314.421 185.473 321.778 192.83 330.853 192.83Z" fill="#FFAB1A"/>
<path fill-rule="evenodd" clip-rule="evenodd" d="M417.702 161.402C428.074 161.402 436.482 152.994 436.482 142.622C436.482 132.251 428.074 123.843 417.702 123.843C407.331 123.843 398.923 132.251 398.923 142.622C398.923 152.994 407.331 161.402 417.702 161.402Z" fill="#F83A57"/>
</svg>
